<svg version="1" xmlns="http://www.w3.org/2000/svg" width="666.667" height="666.667" viewBox="0 0 500.000000 500.000000"><path d="M238.3 91.5c-11.1 2.4-22.6 6.3-30.6 10.4-4.2 2.2-8.3 3.8-9 3.6-3.7-1.4-18.9 15.9-22 25-1.6 5-2.3 5.3-9 4.8-4.7-.3-7 0-9.6 1.4-4.1 2.1-5.2 4.3-2.2 4.3 3.2 0 3.3 1.7.1 3-8.9 3.7-17.7 19.9-21.6 39.6-3.9 20-5.3 54.8-2.4 64.4 1.2 4.1 1.4 15 .2 15-.4 0-1.3-.5-2-1.2-.9-.9-1.2-.8-1.2.4 0 .9.8 2.4 1.7 3.3 1.4 1.5 1.5 2.7.6 9.8-.8 6.9-.8 8.4.5 9.7.9 1 1.6 1.1 1.9.4.2-.6 1.1-2 1.9-3 1.5-1.8 1.5-1.8.9.6-.4 1.4-1.2 8.5-1.9 15.9l-1.1 13.3-3 1.3-3 1.3 3.2.1c2.9.1 3.3.5 4.3 4.3 4.2 16.6 9.2 28.3 17.3 40.3 5.9 8.8 25.8 28.1 35.8 34.7 27.4 18.1 56.4 19.9 91.8 5.9 22-8.7 38.5-21.1 50.6-37.9 2.3-3.3 4.3-5.1 5.1-4.8 4.2 1.7 4.8 1.7 2.6-.1l-2.4-1.9 2.6-6.2c1.4-3.4 2.6-6.8 2.6-7.7 0-.9 1.1-2.7 2.5-4.1 1.4-1.4 2.5-2.9 2.5-3.4s.8-1.4 1.8-1.9c1.1-.6 2.7-4.1 4.1-8.6 2-6.5 2.9-8 6-9.9 2.5-1.6 3.8-2 4.3-1.2.4.6.8-.7.8-2.9 0-2.9-.3-3.6-1-2.5-.5.8-1 1.1-1 .7 0-.4-.9-.3-2 .3s-2 .7-2 .2c0-2.4 7.4-21.3 12.8-32.7 8.5-18 9.6-23 9.6-45 .1-33.4-.3-39.9-2.4-46.8-2.3-7.4-7.4-15.5-15.3-24.2-5-5.6-7.7-9.4-7.7-11.1 0-.4 2.7-.4 6.1 0 6.3.6 10.9 0 10.9-1.5 0-.5-2.4-2.1-5.2-3.5-2.9-1.5-8.1-4.9-11.4-7.5-5.3-4.2-6.6-5.9-8.9-11.7-5.6-14-13.4-25.6-19.6-28.8-1.6-.8-3-1.4-3.2-1.4-.3 0-1.9 2.2-3.7 5-1.8 2.7-3.8 5-4.4 5-.7 0-3.1-.9-5.4-2l-4.1-2 2.1-3.5c1.1-2 1.8-3.9 1.4-4.2-.3-.3-3.9 0-8.1.7-7.7 1.3-11.2 1.1-25-1.4-9.9-1.9-28.9-1.9-37.2-.1zm-9.8 69.7c11.3 3.9 19.1 8.5 26.2 15.5 7.7 7.6 12.3 13.2 12.3 15 0 .6.6 1.8 1.4 2.6.8.8 2.2 3.2 3.1 5.3 1 2.1 1.9 3.4 2.2 2.7.2-.7 1-1 1.7-.7.8.3 1.6-.4 2-1.8.8-3.1.6-15-.3-21.6-.4-2.9-.6-5.4-.4-5.6.4-.4 3.2.4 9.8 2.8 4.5 1.5 13.2 10.2 18.5 18.3 5.7 8.7 9.1 16.8 12.5 30.5 1.5 5.6 2.9 11.1 3.1 12 .4 1.4-.8 1.2-8.3-1.4-8-2.8-9.6-3-18.1-2.6-12.7.7-16.1 3.8-10.9 10 1.5 1.9 3.2 2.7 5.7 2.8 4.9.3 5.8 0 3.5-1-1.4-.6.4-.9 5.6-.9 7.4-.1 16.2 2 17.5 4.1.6.9-1.7.7-9.7-.7-6.6-1.3-8.9-1.4-8.9-.5 0 .6 1.2 1 2.8 1 1.5 0 3.4.5 4.2 1 2.1 1.4-2.3 1.3-12.4-.2-9.4-1.3-18.6-.4-21.5 2.1-1.1.9-2.3 2.9-2.6 4.4-.4 1.4-1.3 3.1-2.1 3.8-1.8 1.4-1.8 1 0-3.3 2-4.7 1.1-7.8-2.3-7.8-1.4 0-6.4-.9-11.1-1.9-9.5-2.1-9.8-2-11.1 4.4-.6 2.8-.6 2.7-.8-1-.1-3.5-.3-3.8-1.5-2.3-1.5 2.1-2.6 1.3-2.6-1.8 0-5.1-9-9.2-32.4-15-6-1.4-12.3-3.3-14-4.1-3.1-1.4-3-1.4 2.2-.9 4.9.5 5.3.4 4-1.1-1.2-1.5-.6-1.6 6.3-1 5.6.4 9.3 1.3 13.5 3.4 3.1 1.5 5.6 3.2 5.3 3.6-.2.5 2.8 2.2 6.6 3.9 3.9 1.7 8.5 4.4 10.2 6.1 1.8 1.7 3.5 2.8 3.8 2.5.9-.9-6.1-6.5-9.9-7.9-4.1-1.5-4.5-2.4-1.7-3.8 11.1-6-13.2-19.6-31.6-17.6-7.8.8-15.1 2.9-19.9 5.6-3.6 2-12.7 2.6-15.2 1-3.5-2.2 2.6-22.1 10.9-35.8 6.7-11.2 19-21.1 29.9-24.2 4.9-1.4 17.3-.3 24.5 2.1zm106.9 35.6c1.3 2.7 3.2 5.5 4.2 6.3 4.5 3.7 5.4 13 3.3 33-.6 5.7-1.2 12.1-1.2 14.1-.2 3.1-.6 3.8-2.2 3.8-2.6 0-2.8-.2-10.3-8.3-3.4-3.8-6-7.2-5.7-7.6.2-.5.6-2.9.6-5.3.2-3.8.5-4.4 2.3-4.4 2.9.1 4.6-8 4.7-22.8 0-15.6.4-16.4 4.3-8.8zM181 229.4c8 .9 27.1 4.8 26.6 5.4-.3.3-3.1 0-6.3-.6-3.2-.6-7.4-1.4-9.3-1.7-1.9-.3-5.9-1-8.9-1.5-3-.6-8.9-1.1-13-1.2l-7.6-.1 6-.6c3.3-.4 6.2-.6 6.5-.5.3.1 3 .5 6 .8zm-19 .9c0 .2-1 1.2-2.2 2.3l-2.3 1.9 1.9-2.3c1.8-2.1 2.6-2.7 2.6-1.9zm93 17.4c-.1 1.1-2.6 4.3-3.4 4.3-.3 0-.6-1.1-.6-2.5 0-1.8.5-2.5 2-2.5 1.1 0 2 .3 2 .7zm43.7 5.9c-.3.3-1.2.4-1.9.1-.8-.3-.5-.6.6-.6 1.1-.1 1.7.2 1.3.5zm18.7 3.7c5 1.2 8.3 2.3 7.5 2.4-.8.2-6.6-1-12.9-2.7-6.3-1.7-9.7-2.8-7.5-2.4 2.2.3 8 1.5 12.9 2.7zm12.3 3.3c-.3.3-1.2.4-1.9.1-.8-.3-.5-.6.6-.6 1.1-.1 1.7.2 1.3.5zM151.4 270c-.6.5-2.4-2.1-2.4-3.4 0-.6.6-.1 1.4 1 .8 1 1.2 2.1 1 2.4zm102.9-.4c1.8.9 3.4 1.8 3.6 2.1.3.2.8 5.2 1.1 11.2.6 9.2 1.1 11.6 3.2 15.2 5 8.5 10.3 13 15 12.8 1.7 0 1.1-.6-2.7-2.5-6.1-2.9-3.9-3.1 6.3-.5 15 3.8 45.3 9 52.5 9.1 2.6 0 4.7.2 4.7.5 0 .2-.7 2.3-1.6 4.5-1.3 3.1-2.1 4-4 4-3 0-3 .9.1 3.9 2.8 2.6 3 3.7 1.4 9.5-1.5 5.4-2.8 8.3-6 13.1-2.6 3.9-21.5 23.6-27.4 28.5-6.4 5.3-23.6 15.5-28.1 16.6-1.6.4-3.9 1.3-5 2.1-5.6 3.6-15.8 5.5-31.1 5.9-8.4.2-15.3 0-15.3-.4s-2.8-1.4-6.2-2.1c-8.2-1.7-18.6-6.1-26.2-11.2-5.5-3.7-19.6-17.3-19.6-18.9 0-.4-1-1.5-2.1-2.6-1.2-1-3.2-3.5-4.5-5.4-1.2-1.9-3.3-4.7-4.7-6.2-2.5-2.9-12.6-22.6-17.2-33.8-1.5-3.6-2.9-9-3.2-12-.2-3-.8-6.8-1.3-8.3-.6-1.7-.6-3.8 0-5.3.6-1.4 1-4.6 1-7.2 0-2.6 1.2-7.9 2.5-11.7 1.4-3.9 2.5-7.8 2.5-8.8 0-2.4 1.4-2.1 2.9.7.7 1.3 2.6 3.4 4.2 4.5 2.3 1.7 2.8 2.7 2.3 4.5-.8 3.1 1.2 6.6 3.6 6.6 2.4 0 2.5-.9.5-3.6s-1.9-4.8.3-3.9c9.7 3.9 51.6 12.4 61.7 12.6h5l-4 1.9c-4.9 2.3-2.5 2.6 3.7.5 4.5-1.6 9.7-6 10.2-8.6.4-2 5.3-12.1 6.8-13.9 4.1-5 9.5-6.2 15.1-3.4zm-88.8 3.4c1.4.5 4.5 1.2 6.7 1.5 2.3.3 5.8 1 7.7 1.5 8.4 2.2 16.9 4 19.2 4 1.4 0 2.9.4 3.5.9.5.6 2.9 1.1 5.4 1.3 3.3.2 4.6.8 4.8 2 .2 1-.1 1.8-.7 1.8s-1.1-.7-1.1-1.5c0-1.9-6.6-2.1-7.3-.3-.4.9-.6.8-.6-.2-.1-1.1-2.1-1.9-7.3-2.9-8.4-1.5-35-7.9-35.7-8.6-.8-.9 2.7-.5 5.4.5zm59.5 5c-1.4 2.6-6.6 5.2-9.3 4.7-1.8-.4-1.7-.5.5-.6 1.5 0 4.2-1.4 6-3.1 3.9-3.5 4.2-3.6 2.8-1zm-26.7 5.7c-.7.2-1.9.2-2.5 0-.7-.3-.2-.5 1.2-.5s1.9.2 1.3.5zM222 285c-.8.5-2.2 1-3 1-1.3 0-1.3-.1 0-1 .8-.5 2.2-1 3-1 1.3 0 1.3.1 0 1zm56.9 11.5c2.4.8 6.2 1.5 8.5 1.5 2.2 0 5.9.5 8.1 1 2.2.5 8.5 1.4 14 2 5.5.6 12.8 1.9 16.3 3 7.9 2.5 10 2.5 12.6.3 1.4-1.2 1.3-.9-.4 1.1-2.4 2.7-2.8 2.8-9 2.2-8.9-.8-13-1.5-24-3.8-5.2-1.1-12.9-2.6-17-3.4-8.8-1.7-13.1-3.8-16.8-7.9l-2.7-3 3 2.7c1.7 1.5 5 3.4 7.4 4.3zm63.7 9.1c-1 1.4-2 2.3-2.3 2.1-.6-.6 3-5.7 3.6-5.1.2.2-.4 1.5-1.3 3z"/><path d="M198 225c0 .5.7 1 1.6 1 .8 0 1.2-.5.9-1-.3-.6-1-1-1.6-1-.5 0-.9.4-.9 1zM202.8 225.7c.7.3 1.6.2 1.9-.1.4-.3-.2-.6-1.3-.5-1.1 0-1.4.3-.6.6zM211.5 227.8c.6.5 2.1 1.3 3.5 1.7 1.7.5 2.2.4 1.5-.3-.5-.5-2.1-1.3-3.5-1.7-1.7-.5-2.2-.4-1.5.3zM278.5 244c-.4.6.5 1 1.9 1s2.6-.5 2.6-1c0-.6-.9-1-1.9-1-1.1 0-2.3.4-2.6 1zM163 289c0 .5 1 1 2.3 1 1.8 0 1.9-.2.7-1-1.9-1.3-3-1.3-3 0zM168.8 290.7c.6.2 1.8.2 2.5 0 .6-.3.1-.5-1.3-.5-1.4 0-1.9.2-1.2.5zM222 312.6c0 4 3.1 7.9 8.3 10.6 5.6 2.9 19 3.7 23.4 1.5 3.1-1.7 6.3-6.9 6.3-10.5 0-2.6-2-4-2-1.5-.1 3.1-4.5 7.4-8.6 8.4-9.4 2.2-20.9-1.8-25.6-8.9l-1.8-2.7v3.1zM280 312c0 .5.7 1 1.6 1 .8 0 1.2-.5.9-1-.3-.6-1-1-1.6-1-.5 0-.9.4-.9 1zM191.3 331.6c-1.3 3.4 6.3 14.2 13 18.3 1.9 1.1 6.6 2.3 11.7 2.9 8.2 1 11.9 1.8 31.3 6.7 9.4 2.4 11.9 2.3 19.7-1.3 4.8-2.2 11-7.1 11-8.7 0-1.7-1.2-2-12-3.5-4.7-.7-14.1-2.3-21-3.7-6.9-1.4-13.6-2.8-15-3-8.4-1.5-22.6-4.8-29.3-6.9-9.3-2.8-8.6-2.8-9.4-.8zm27.4 8.4c41.5 9.2 39.9 8.8 43.3 11.8 1.7 1.6 2.8 3.2 2.2 3.6-2.9 1.8-42-5.3-57.9-10.5-7.4-2.4-9.1-4-6.8-6.3 2.2-2.2 3.3-2.1 19.2 1.4zM345 355.5c-.7.8-1.9 1.5-2.6 1.5-.8 0-1.4.4-1.4 1 0 1.7 1.5 1.1 4-1.5 1.3-1.4 2.1-2.5 1.8-2.5-.3 0-1.1.7-1.8 1.5z"/></svg>